<?xml version="1.0" encoding="UTF-8"?>
<svg width="157.62mm" height="60.311mm" version="1.1" viewBox="0 0 157.62 60.311" xmlns="http://www.w3.org/2000/svg" xmlns:cc="http://creativecommons.org/ns#" xmlns:dc="http://purl.org/dc/elements/1.1/" xmlns:rdf="http://www.w3.org/1999/02/22-rdf-syntax-ns#">
<metadata>
<rdf:RDF>
<cc:Work rdf:about="">
<dc:format>image/svg+xml</dc:format>
<dc:type rdf:resource="http://purl.org/dc/dcmitype/StillImage"/>
<dc:title/>
</cc:Work>
</rdf:RDF>
</metadata>
<defs>
<linearGradient id="a" x1="221.22" x2="598.2" y1="743.71" y2="366" gradientTransform="matrix(.153 0 0 .15957 3.5843 65.262)" gradientUnits="userSpaceOnUse">
<stop stop-color="#ac4eeb" stop-opacity=".98673" offset="0"/>
<stop stop-color="#1a98fc" stop-opacity=".96018" offset="1"/>
</linearGradient>
</defs>
<g transform="translate(-37.282 -123.67)">
<g stroke-width=".36552" aria-label="quite a playlist">
<path d="m114.66 130.2q1.4465 0 2.6747 0.30022 1.2555 0.30022 2.0197 1.0644t0.7642 2.1288v16.157h-2.8385v-7.4782l0.73691 0.92795q-0.54586 0.49127-1.31 0.7642-0.7642 0.27293-1.5011 0.3821-0.7369 0.13646-1.2555 0.13646-3.0841 0-4.749-1.8286-1.6649-1.8559-1.6649-5.1038 0-2.238 0.57315-3.6845 0.60044-1.4738 1.6103-2.2926 1.0098-0.81879 2.2653-1.1463 1.2828-0.32751 2.6747-0.32751zm-0.13647 2.4836q-1.6376 0-2.5382 0.65503-0.87337 0.62773-1.2009 1.7467-0.32752 1.119-0.32752 2.4564 0 1.4738 0.46398 2.5109t1.3374 1.583q0.87337 0.54586 2.1015 0.54586 0.73691 0 1.4738-0.19105 0.7369-0.21834 1.4465-0.60044v-7.3418q0-0.49127-0.43668-0.79149-0.40939-0.30022-1.0371-0.43668-0.62773-0.13647-1.2828-0.13647z"/>
<path d="m130.24 144.61q-1.8832 0-3.2478-0.60045-1.3373-0.62773-2.0742-1.8559-0.7369-1.2282-0.7369-3.0568v-8.5972h2.8657v8.1878q0 1.7467 0.7642 2.5928 0.79149 0.81879 2.4291 0.81879t2.4018-0.81879q0.7915-0.84607 0.7915-2.5928v-8.1878h2.7566v8.5972q0 2.7293-1.583 4.1212-1.5557 1.3919-4.3668 1.3919z"/>
<path d="m140.31 144.2v-13.619h2.8658l0.0273 13.619zm-0.0819-15.884v-2.5928h3.0568v2.5928z"/>
<path d="m152.21 144.56q-1.8559 0-2.9476-0.98254-1.0644-0.98254-1.0644-2.893v-7.8057h-2.2107v-2.3745h2.2107v-3.821h2.9476v3.821h3.3297v2.3745h-3.3297v7.2326q0 0.95525 0.32752 1.4465 0.3548 0.46398 1.2828 0.46398 0.46397 0 0.92795-0.10917 0.46398-0.13646 0.79149-0.32751v2.5382q-0.49127 0.21834-1.119 0.32751-0.60044 0.10917-1.1463 0.10917z"/>
<path d="m163.72 144.61q-2.0197 0-3.5208-0.81879-1.4738-0.81878-2.2926-2.4291-0.79149-1.6103-0.79149-3.9302 0-3.5754 1.6649-5.404 1.6922-1.8559 4.6944-1.8559 2.2107 0 3.5754 0.98255 1.3646 0.98254 1.9651 2.7566 0.62773 1.7467 0.60044 4.0939h-10.781l-0.0819-2.1288h8.6791l-0.68232 0.68232q-0.0819-2.1016-0.87337-3.0568-0.79149-0.98254-2.4836-0.98254-1.0917 0-1.8559 0.46397-0.7642 0.43669-1.1736 1.5284-0.3821 1.0644-0.3821 2.9476 0 2.2926 1.0644 3.4935 1.0644 1.1736 3.1387 1.1736 0.92796 0 1.7194-0.16376 0.81878-0.16375 1.5011-0.40939 0.68232-0.27293 1.1736-0.51856v2.6474q-0.95524 0.40939-2.1561 0.65503-1.2009 0.27293-2.702 0.27293z"/>
<path d="m185.6 144.61q-1.0644 0-2.047-0.21835-0.98254-0.19105-1.8013-0.68232-0.79149-0.49127-1.2828-1.3373-0.46397-0.87337-0.46397-2.1561 0-1.5284 0.60044-2.5109t1.7194-1.4738q1.119-0.49127 2.6747-0.49127 1.0371 0 1.8559 0.16375 0.84607 0.16376 1.5011 0.46398 0.68232 0.27293 1.1463 0.62773l0.30022 1.8832q-0.60044-0.40939-1.6103-0.68232-1.0098-0.30022-2.1834-0.30022-1.5557 0-2.3745 0.54585-0.79149 0.54586-0.79149 1.6376 0 0.81879 0.46397 1.3374 0.46398 0.49127 1.1463 0.7369 0.70961 0.21835 1.4738 0.21835 1.6103 0 2.3745-0.21835 0.76419-0.21834 0.76419-1.0098v-5.7315q0-1.4465-0.87336-2.1015-0.87337-0.68232-2.4836-0.68232-1.1463 0-2.3745 0.3821-1.2282 0.3548-2.0197 1.0098v-2.6747q0.7642-0.51857 2.2107-0.81879 1.4738-0.32751 3.0295-0.32751 0.7642 0 1.5284 0.16375 0.7915 0.13647 1.4738 0.46398 0.68232 0.30022 1.2009 0.84608 0.54585 0.51856 0.84608 1.2828 0.30022 0.7642 0.30022 1.8013v6.5503q0 1.3373-0.84608 2.0742-0.81878 0.70961-2.238 0.95525-1.4192 0.27293-3.2206 0.27293z"/>
<path d="m114.5 176.81q-0.51856 0-1.2828-0.13646-0.7642-0.10918-1.5284-0.35481-0.7642-0.27293-1.3374-0.70961l0.73691-0.92796v7.2326h-2.8384v-16.539q0-0.84608 0.51856-1.4192 0.54586-0.57315 1.4192-0.90066 0.87337-0.35481 1.9105-0.49127 1.0644-0.16376 2.1016-0.16376 1.8286 0 3.3297 0.68232t2.4018 2.3199q0.90066 1.6103 0.90066 4.4214 0 2.1288-0.73691 3.7118-0.7369 1.5557-2.1561 2.4291-1.4192 0.84608-3.4389 0.84608zm-0.51856-2.4018q1.31 0 2.1834-0.54585 0.87337-0.54586 1.31-1.583 0.43669-1.0371 0.43669-2.5109 0-1.3646-0.32752-2.4836-0.30022-1.119-1.119-1.7467-0.81878-0.65502-2.3472-0.65502-1.3646 0-2.2107 0.30022-0.81878 0.27292-0.81878 0.81878v7.6147q0.70961 0.3821 1.4465 0.60044 0.7369 0.19105 1.4465 0.19105z"/>
<path d="m126.97 176.43h-2.8384v-18.887h2.8384z"/>
<path d="m135.98 176.84q-1.0644 0-2.047-0.21834-0.98254-0.19105-1.8013-0.68232-0.79149-0.49127-1.2828-1.3374-0.46398-0.87337-0.46398-2.1561 0-1.5284 0.60044-2.5109 0.60045-0.98254 1.7194-1.4738 1.119-0.49127 2.6747-0.49127 1.0371 0 1.8559 0.16376 0.84607 0.16376 1.5011 0.46398 0.68232 0.27292 1.1463 0.62773l0.30022 1.8832q-0.60044-0.40939-1.6103-0.68232-1.0098-0.30022-2.1834-0.30022-1.5557 0-2.3745 0.54586-0.7915 0.54586-0.7915 1.6376 0 0.81878 0.46398 1.3373 0.46398 0.49128 1.1463 0.73691 0.70961 0.21834 1.4738 0.21834 1.6103 0 2.3745-0.21834t0.7642-1.0098v-5.7315q0-1.4465-0.87337-2.1016-0.87337-0.68232-2.4836-0.68232-1.1463 0-2.3745 0.3821-1.2282 0.35481-2.0197 1.0098v-2.6747q0.7642-0.51856 2.2107-0.81878 1.4738-0.32752 3.0295-0.32752 0.7642 0 1.5284 0.16376 0.79149 0.13646 1.4738 0.46398 0.68232 0.30022 1.2009 0.84607 0.54585 0.51857 0.84607 1.2828t0.30022 1.8013v6.5503q0 1.3374-0.84607 2.0743-0.81879 0.70961-2.238 0.95524-1.4192 0.27293-3.2206 0.27293z"/>
<path d="m147.8 181.73q-0.51857 0-0.98255-0.10917-0.46397-0.0819-0.81878-0.21834v-2.4564q0.32751 0.10917 0.65503 0.19105 0.32751 0.0819 0.70961 0.0819 0.81878 0 1.3646-0.43669 0.54586-0.43668 0.92796-1.2555 0.3821-0.81878 0.62773-1.9651l0.0546 1.4192-5.8407-14.247h3.2478l3.9575 10.808h-0.4094l3.9029-10.808h2.9749l-5.6496 14.547q-0.68232 1.7467-1.4738 2.702-0.79149 0.98255-1.6376 1.3646-0.81878 0.3821-1.6103 0.3821z"/>
<path d="m163.86 176.43h-2.8384v-18.887h2.8384z"/>
<path d="m167.98 176.43v-13.619h2.8658l0.0273 13.619zm-0.0819-15.884v-2.5928h3.0568v2.5928z"/>
<path d="m178.94 176.84q-1.4738 0-2.5109-0.32751-1.0098-0.30022-1.9924-0.7642v-2.702q0.70961 0.43669 1.3919 0.79149 0.68232 0.32752 1.4192 0.51857 0.76419 0.19105 1.6922 0.19105 1.1736 0 1.8286-0.49127 0.68232-0.49127 0.68232-1.2282 0-0.62773-0.43669-0.98254-0.40939-0.35481-1.0644-0.60044-0.65502-0.24564-1.3646-0.49127-0.7369-0.19105-1.4738-0.43669-0.7369-0.27292-1.3646-0.70961-0.60044-0.46398-0.98254-1.1736-0.35481-0.70961-0.35481-1.7467 0-1.1463 0.46398-1.9378 0.46398-0.81878 1.2009-1.31 0.7642-0.51857 1.6649-0.73691 0.92795-0.24563 1.8013-0.24563 1.4465 0.0273 2.3472 0.3548 0.92796 0.32752 1.8013 0.79149l0.0273 2.4564q-0.98254-0.51857-1.8559-0.90067t-2.0197-0.3821q-1.0644 0-1.774 0.4094-0.70961 0.3821-0.70961 1.1463 0 0.65503 0.3821 1.0371 0.40939 0.3821 1.0371 0.60044 0.65503 0.21834 1.3919 0.43669 0.68232 0.21834 1.4192 0.46397 0.73691 0.21835 1.3646 0.65503 0.62773 0.43669 1.0098 1.1463 0.4094 0.70961 0.4094 1.8559-0.0273 1.5284-0.81879 2.4836-0.7642 0.95525-2.0197 1.3919-1.2555 0.43668-2.5928 0.43668z"/>
<path d="m192.61 176.79q-1.8559 0-2.9476-0.98254-1.0644-0.98254-1.0644-2.893v-7.8057h-2.2107v-2.3745h2.2107v-3.821h2.9476v3.821h3.3297v2.3745h-3.3297v7.2326q0 0.95525 0.32751 1.4465 0.35481 0.46398 1.2828 0.46398 0.46397 0 0.92795-0.10917 0.46398-0.13647 0.79149-0.32752v2.5382q-0.49127 0.21834-1.119 0.32752-0.60044 0.10917-1.1463 0.10917z"/>
</g>
<path d="m68.474 123.67c0.8375 0.51171 23.181 14.382-5.7674 20.472-28.731 6.0439-25.407 24.181-25.215 25.118a31.04 30.328 0 0 0 26.577 14.721 31.04 30.328 0 0 0 13.683-3.1473 10.804 14.902 41.245 0 1-11.43-2.3286 10.804 14.902 41.245 0 1 4.1887-18.718 10.804 14.902 41.245 0 1 17.535-1.486 10.804 14.902 41.245 0 1-4.125 18.655 31.04 30.328 0 0 0 11.189-23.304 31.04 30.328 0 0 0-26.634-29.983zm13.29 54.42a3.3713 5.7292 72.133 0 0-1.5978 5.018 3.3713 5.7292 72.133 0 0 6.2476 0.2514 4.2134 6.1117 57.588 0 1-4.7908-1.4406 4.2134 6.1117 57.588 0 1 0.14107-3.8288z" fill="url(#a)" stroke-width=".1397"/>
</g>
</svg>
